<svg xmlns="http://www.w3.org/2000/svg" viewBox="0 0 1240 750" role="img" aria-label="OTRYX RPC system architecture"><defs><style>.title{font:700 31px Arial,Helvetica,sans-serif;fill:#153451}.section{font:700 20px Arial,Helvetica,sans-serif;fill:#153451}.body{font:16px Arial,Helvetica,sans-serif;fill:#234960}.muted{font:13px Arial,Helvetica,sans-serif;fill:#517186}.label{font:700 16px Arial,Helvetica,sans-serif;fill:#153451}</style><marker id="ar" markerWidth="10" markerHeight="10" refX="9" refY="3" orient="auto"><path d="M0 0 L10 3 L0 6Z" fill="#16A5B0"/></marker><marker id="dim" markerWidth="10" markerHeight="10" refX="9" refY="3" orient="auto"><path d="M0 0 L10 3 L0 6Z" fill="#6B8B9B"/></marker><linearGradient id="bg" x2="1" y2="1"><stop stop-color="#F7FCFF"/><stop offset="1" stop-color="#E8F7F7"/></linearGradient></defs>
<rect width="1240" height="750" rx="24" fill="url(#bg)"/><text x="56" y="66" class="title">OTRYX RPC  ·  Architecture</text><text x="56" y="92" class="muted">Java 21  /  Wire v1  /  SPIs and adapters</text>
<rect x="57" y="134" width="515" height="440" rx="18" fill="#fff" stroke="#9CCED9" stroke-width="2"/><rect x="668" y="134" width="515" height="440" rx="18" fill="#fff" stroke="#9CCED9" stroke-width="2"/>
<rect x="94" y="169" width="440" height="55" rx="10" fill="#153451"/><text x="314" y="204" font-size="22" font-family="Arial" fill="white" text-anchor="middle">Consumer Application</text>
<rect x="704" y="169" width="442" height="55" rx="10" fill="#153451"/><text x="925" y="204" font-size="22" font-family="Arial" fill="white" text-anchor="middle">Provider Application</text>
<rect x="94" y="254" width="440" height="60" rx="12" fill="#DDF7F4" stroke="#16A5B0" stroke-width="2"/><text x="314" y="281" text-anchor="middle" class="section">Generated Stub / JDK Proxy</text><text x="314" y="301" text-anchor="middle" class="muted">Client API / Deadline / Retry Budget</text>
<rect x="704" y="254" width="442" height="60" rx="12" fill="#DDF7F4" stroke="#16A5B0" stroke-width="2"/><text x="925" y="281" text-anchor="middle" class="section">Generated Dispatcher / Binding</text><text x="925" y="301" text-anchor="middle" class="muted">Admission / Virtual Threads / CPU Pool</text>
<rect x="94" y="345" width="205" height="78" rx="13" fill="#E8F1FF" stroke="#89B6D5"/><text x="196" y="375" class="label" text-anchor="middle">Load Balancer</text><text x="196" y="399" class="body" text-anchor="middle">P2C + EWMA</text>
<rect x="328" y="345" width="206" height="78" rx="13" fill="#E8F1FF" stroke="#89B6D5"/><text x="431" y="375" class="label" text-anchor="middle">Local Directory</text><text x="431" y="399" class="body" text-anchor="middle">Registry snapshot</text>
<rect x="704" y="345" width="442" height="78" rx="13" fill="#E8F1FF" stroke="#89B6D5"/><text x="925" y="375" class="label" text-anchor="middle">Service Execution</text><text x="925" y="399" class="body" text-anchor="middle">Bounded resources · Async completion</text>
<rect x="94" y="459" width="205" height="73" rx="12" fill="#153451"/><text x="196" y="488" font-size="18" font-family="Arial" fill="white" text-anchor="middle">Fory Codec</text><text x="196" y="508" font-size="14" font-family="Arial" fill="#82E9E0" text-anchor="middle">Wire v1 framing</text>
<rect x="328" y="459" width="206" height="73" rx="12" fill="#153451"/><text x="431" y="488" font-size="18" font-family="Arial" fill="white" text-anchor="middle">Vert.x TCP</text><text x="431" y="508" font-size="14" font-family="Arial" fill="#82E9E0" text-anchor="middle">TLS / mTLS</text>
<rect x="704" y="459" width="205" height="73" rx="12" fill="#153451"/><text x="806" y="488" font-size="18" font-family="Arial" fill="white" text-anchor="middle">Vert.x TCP</text><text x="806" y="508" font-size="14" font-family="Arial" fill="#82E9E0" text-anchor="middle">TLS / mTLS</text>
<rect x="941" y="459" width="205" height="73" rx="12" fill="#153451"/><text x="1043" y="488" font-size="18" font-family="Arial" fill="white" text-anchor="middle">Fory Codec</text><text x="1043" y="508" font-size="14" font-family="Arial" fill="#82E9E0" text-anchor="middle">Wire v1 framing</text>
<path d="M534 494H704" stroke="#16A5B0" stroke-width="7" marker-end="url(#ar)"/><text x="619" y="476" class="label" text-anchor="middle">RPC</text>
<path d="M314 224V252M925 224V252M196 314V343M925 314V343" stroke="#86C2CC" stroke-width="3"/>
<rect x="57" y="601" width="1126" height="109" rx="18" fill="#E0F4F2" stroke="#A6D9D5"/>
<text x="84" y="632" class="section">Control plane &amp; extensions</text>
<text x="84" y="659" class="body">Registry: Memory · Etcd · Nacos</text><text x="84" y="682" class="body">SPI: Proxy · Registry · Codec · Transport</text>
<text x="616" y="659" class="body">Observability: Micrometer · OpenTelemetry · JFR</text><text x="616" y="682" class="body">Spring Boot AutoConfiguration / Starter</text>
<path d="M431 423V459" stroke="#86C2CC" stroke-width="2" stroke-dasharray="7 6"/><path d="M432 575V601" stroke="#6B8B9B" stroke-width="3" stroke-dasharray="6 6"/>
</svg>